<?xml version="1.0" encoding="utf-8"?>
<!-- Generator: Adobe Illustrator 25.4.1, SVG Export Plug-In . SVG Version: 6.00 Build 0)  -->
<svg version="1.1" id="Layer_1" xmlns="http://www.w3.org/2000/svg" xmlns:xlink="http://www.w3.org/1999/xlink" x="0px" y="0px"
	 viewBox="0 0 128 121" style="enable-background:new 0 0 128 121;" xml:space="preserve">
<style type="text/css">
	.st0{fill:#FFFFFF;stroke:#FFFFFF;stroke-width:0.25;stroke-miterlimit:6.25;}
</style>
<g id="SVGRepo_bgCarrier">
</g>
<g id="SVGRepo_tracerCarrier">
</g>
<g id="SVGRepo_iconCarrier">
	<path class="st0" d="M64,4.5c11,0,21.1,2.1,30.4,6.4s16.7,10.1,22.1,17.4c5.4,7.3,8.1,15.3,8.1,24c0,8.7-2.7,16.7-8.1,24
		c-5.4,7.4-12.8,13.2-22.1,17.4c-9.3,4.3-19.4,6.4-30.4,6.4c-3.5,0-7.1-0.2-10.8-0.7c-16.1,11.2-24.6,16.8-25.6,16.9
		c-0.5,0.2-1,0.2-1.4-0.1c-0.2-0.1-0.3-0.3-0.4-0.5c-0.1-0.2-0.1-0.4-0.1-0.6v-0.3c0.3-1.8,2.3-9.1,6.2-22
		c-8.7-4.3-15.6-10.1-20.7-17.2c-5.1-7.2-7.7-14.9-7.7-23.3c0-8.7,2.7-16.7,8.1-24c5.4-7.3,12.8-13.1,22.1-17.4
		C42.9,6.6,53,4.5,64,4.5z"/>
</g>
</svg>
