<?xml version="1.0" encoding="utf-8"?>
<!-- Generator: Adobe Illustrator 25.4.1, SVG Export Plug-In . SVG Version: 6.00 Build 0)  -->
<svg version="1.1" id="Layer_2_00000043419861738021622260000018065499499989613981_"
	 xmlns="http://www.w3.org/2000/svg" xmlns:xlink="http://www.w3.org/1999/xlink" x="0px" y="0px" viewBox="0 0 31.9 31"
	 style="enable-background:new 0 0 31.9 31;" xml:space="preserve">
<style type="text/css">
	.st0{fill:none;stroke:#000000;stroke-width:0.6684;stroke-linecap:round;stroke-linejoin:round;stroke-miterlimit:66.6667;}
</style>
<path class="st0" d="M16.1,1.6C8.1,1.6,1.7,8.1,1.7,16c0,6.2,4,11.7,9.8,13.6c0.7,0.1,1-0.3,1-0.7c0-0.4,0-1.2,0-2.4
	c-4,0.9-4.8-1.9-4.8-1.9c-0.3-0.9-0.8-1.6-1.6-2.1c-1.3-0.9,0.1-0.9,0.1-0.9c0.9,0.1,1.7,0.7,2.2,1.5c1.3,2.2,3.3,1.6,4.2,1.2
	c0.1-0.7,0.4-1.4,0.9-1.9c-3.2-0.4-6.6-1.6-6.6-7.1c0-1.4,0.5-2.8,1.5-3.9C7.9,10.2,8,8.8,8.5,7.6c0,0,1.2-0.4,4,1.5
	c2.4-0.6,4.8-0.6,7.2,0c2.7-1.9,4-1.5,4-1.5c0.5,1.2,0.6,2.6,0.1,3.8c1,1,1.5,2.4,1.5,3.9c0,5.5-3.3,6.7-6.6,7.1
	c0.7,0.7,1.1,1.7,1,2.7c0,1.9,0,3.5,0,3.9c0,0.5,0.3,0.8,1,0.7c7.5-2.5,11.6-10.7,9.1-18.2C27.8,5.6,22.3,1.6,16.1,1.6"/>
</svg>
