<?xml version="1.0" encoding="utf-8"?>
<!-- Generator: Adobe Illustrator 25.4.1, SVG Export Plug-In . SVG Version: 6.00 Build 0)  -->
<svg version="1.1" id="Layer_1" xmlns="http://www.w3.org/2000/svg" xmlns:xlink="http://www.w3.org/1999/xlink" x="0px" y="0px"
	 viewBox="0 0 37.2 38.5" style="enable-background:new 0 0 37.2 38.5;" xml:space="preserve">
<style type="text/css">
	.st0{fill-rule:evenodd;clip-rule:evenodd;}
</style>
<g id="SVGRepo_bgCarrier">
</g>
<g id="SVGRepo_tracerCarrier">
</g>
<g id="SVGRepo_iconCarrier">
	<desc>Created with Sketch.</desc>
	<g id="Page-1">
		<g id="Dribbble-Light-Preview" transform="translate(-140.000000, -7559.000000)">
			<g id="icons" transform="translate(56.000000, 160.000000)">
				<path id="github-_x5B__x23_142_x5D_" class="st0" d="M102.6,7400c9.9,0,18,8.3,18,18.5c0,8.2-5.2,15.1-12.3,17.5
					c-0.9,0.2-1.2-0.4-1.2-0.9c0-0.6,0-2.6,0-5.1c0-1.7-0.6-2.8-1.2-3.4c4-0.5,8.2-2,8.2-9.1c0-2-0.7-3.7-1.9-5
					c0.2-0.5,0.8-2.3-0.2-4.9c0,0-1.5-0.5-4.9,1.9c-1.4-0.4-3-0.6-4.5-0.6c-1.5,0-3.1,0.2-4.5,0.6c-3.4-2.4-5-1.9-5-1.9
					c-1,2.5-0.4,4.4-0.2,4.9c-1.2,1.3-1.9,2.9-1.9,5c0,7.1,4.2,8.7,8.2,9.1c-0.5,0.5-1,1.3-1.1,2.5c-1,0.5-3.6,1.3-5.2-1.5
					c0,0-1-1.8-2.8-1.9c0,0-1.8,0-0.1,1.1c0,0,1.2,0.6,2,2.7c0,0,1.1,3.3,6.1,2.2c0,1.5,0,3,0,3.4c0,0.5-0.3,1.1-1.2,0.9
					c-7.2-2.4-12.3-9.4-12.3-17.5C84.6,7408.3,92.7,7400,102.6,7400"/>
			</g>
		</g>
	</g>
</g>
</svg>
