<?xml version="1.0" encoding="UTF-8"?><svg id="Layer_2" xmlns="http://www.w3.org/2000/svg" viewBox="0 0 302.53 230.28"><defs><style>.cls-1{fill:#fef5ec;}</style></defs><g id="Layer_1-2"><g><path class="cls-1" d="M187.3,192.13c-.6,1.15-1.17,2.28-1.77,3.39-2.51,4.7-5.29,9.21-8.93,13.14-1.61,1.74-3.41,3.24-5.44,4.47-7.24,4.39-15.34-.45-17.09-6.58-.51-1.79-.79-3.64-1.19-5.56-.21,.36-.43,.72-.63,1.09-2.52,4.55-5.25,8.96-8.9,12.72-2.5,2.58-5.26,4.84-8.92,5.51-1.31,.24-2.75,.3-4.03,0-5.36-1.22-8.69-4.7-9.67-10.16-.23-1.28-.37-2.58-.58-4.1-.31,.5-.53,.82-.72,1.15-2.63,4.63-5.53,9.07-9.23,12.93-1.83,1.91-3.87,3.56-6.21,4.84-7.08,3.9-15.47-.28-17.1-7.73-.35-1.59-.57-3.21-.89-5.02-.25,.43-.45,.77-.65,1.12-1.99,3.6-4.09,7.14-6.75,10.31-.95,1.13-1.98,2.2-3.05,3.22-3.95,3.77-8.52,4.17-13.45,2.38-2.51-.91-4.72-2.34-6.68-4.13-1.6-1.46-2.34-3.4-2.85-5.43-1.05-4.16-1.04-8.39-.66-12.62,.75-8.3,2.86-16.25,6.39-23.81,2.16-4.62,4.81-8.94,8.39-12.6,3.57-3.65,7.71-6.3,12.9-7.02,4.19-.58,8.01,.28,11.41,2.86,.24,.19,.5,.35,.87,.6,.09-.96,.26-1.79,.22-2.61-.07-1.6,.7-2.76,2.02-3.4,1.53-.74,3.15-1.33,4.79-1.77,2.18-.58,4.42-.66,6.64-.16,3.58,.8,5.85,3.42,5.7,7.09-.13,3.1-.53,6.21-1.07,9.26-1.18,6.72-2.58,13.4-3.79,20.11-.71,3.89-1.28,7.81-1.15,11.78,.03,.79,.1,1.6,.3,2.36,.31,1.17,1.01,1.53,2.08,.93,1.06-.6,2.09-1.35,2.93-2.22,3.6-3.73,6.08-8.21,8.1-12.92,1.46-3.4,2.81-6.88,3.85-10.42,.85-2.89,1.2-5.94,1.76-8.92,1.49-7.96,2.99-15.92,4.45-23.88,1.36-7.42,2.54-14.87,2.77-22.44,.04-1.36,.74-2.36,1.92-2.78,1.98-.7,4.02-1.3,6.08-1.7,1.51-.3,3.1-.33,4.65-.28,4.36,.16,6.86,2.81,6.49,7.15-.33,3.89-.87,7.77-1.54,11.61-1.66,9.55-3.43,19.08-5.2,28.61-1.03,5.53-2.27,11.02-3.18,16.57-.65,3.97-.95,8-1.32,12.01-.08,.85,.09,1.76,.29,2.61,.3,1.28,1.11,1.66,2.23,.98,.81-.49,1.57-1.11,2.2-1.81,2.85-3.15,4.75-6.89,6.5-10.71,2.08-4.54,3.83-9.23,4.99-14.08,.98-4.11,1.65-8.3,2.21-12.49,.59-4.39,.89-8.81,1.3-13.22,.13-1.41,.97-2.32,2.09-3.03,1.65-1.04,3.51-1.51,5.4-1.86,2.14-.4,4.28-.48,6.41,.11,3.73,1.04,5.69,4.04,5.29,7.9-.69,6.75-2,13.41-3.32,20.06-1.12,5.67-1.91,11.41-2.69,17.14-.23,1.71-.05,3.51,.15,5.24,.16,1.36,1.12,1.81,2.24,1,1.27-.93,2.48-2.03,3.44-3.27,3.24-4.17,5.44-8.93,7.23-13.85,1.4-3.85,2.66-7.78,3.7-11.74,.83-3.19,1.26-6.5,1.81-9.76,.58-3.5,1.11-7.01,1.62-10.52,.13-.9,.18-1.84,.12-2.75-.13-1.69,.67-2.81,2.11-3.4,1.47-.6,3.01-1.05,4.56-1.38,2.18-.47,4.4-.76,6.65-.41,3.49,.54,5.43,2.67,5.63,6.21,.17,2.9-.28,5.74-.83,8.56-1.17,5.99-2.51,11.95-3.61,17.95-.81,4.45-1.16,8.97-.16,13.45,.9,4.07,3.11,5.09,6.86,3.28,2.93-1.42,5.05-3.74,6.9-6.33,3.65-5.13,6.03-10.87,7.89-16.84,1.5-4.81,2.73-9.7,2.84-14.76,.05-2.33-.26-4.7-.7-7-.3-1.53-1.05-2.99-1.75-4.42-.66-1.36-.57-2.11,.69-2.94,.13-.09,.27-.17,.42-.24,2.72-1.18,5.48-2.23,8.47-2.43,4.31-.3,6.84,1.82,7.53,6.11,.54,3.34,.08,6.61-.63,9.86-1.78,8.13-5.03,15.71-8.92,23.02-4.16,7.82-9.04,15.15-15.16,21.61-3.42,3.62-7.16,6.85-11.68,9.06-3.34,1.64-6.84,2.43-10.56,1.67-4.92-1.01-8.18-4.01-9.88-8.66-.81-2.19-1.31-4.5-1.99-6.9Zm-117.96,19.05c.22,1.45,.32,2.93,.68,4.34,.31,1.23,1.11,1.55,2.2,.94,1.1-.62,2.22-1.33,3.07-2.25,1.79-1.93,3.55-3.91,5.06-6.05,4.61-6.56,8.36-13.5,8.84-21.76,.15-2.6,.2-5.19-.51-7.72-1.27-4.48-4.42-5.34-7.67-2.03-1.16,1.18-2.18,2.56-3.03,3.98-2.83,4.73-4.56,9.91-5.97,15.2-1.33,5.02-2.35,10.1-2.66,15.34Z"/><path class="cls-1" d="M135.7,66.34c1.1-1.46,2.15-2.96,3.31-4.38,2.75-3.37,5.83-6.36,9.86-8.2,5.87-2.69,11.41-.78,15.04,3.45,1.89,2.2,2.48,4.96,2.81,7.77,.58,4.94-.12,9.8-.86,14.66-.78,5.13-1.68,10.24-2.38,15.37-.26,1.96-.15,3.98-.1,5.97,.02,.77,.14,1.68,.97,2.06,.89,.4,1.7-.12,2.26-.72,1.35-1.46,2.78-2.9,3.84-4.56,4.29-6.68,7.03-14.02,9.02-21.67,2.02-7.75,5-15.06,9.85-21.52,2.79-3.72,6.07-6.92,10.39-8.83,6.01-2.65,11.85-2.66,17.27,1.55,.09,.07,.21,.1,.5,.24,.05-.82,.15-1.55,.12-2.28-.08-1.71,.72-2.9,2.11-3.76,1.87-1.16,3.97-1.64,6.11-1.97,1.91-.3,3.82-.31,5.7,.21,3.32,.92,5.41,3.41,5.25,6.83-.16,3.34-.56,6.68-1.14,9.98-1.17,6.72-2.62,13.39-3.75,20.11-.6,3.57-.8,7.21-1.12,10.82-.07,.78,.07,1.6,.23,2.37,.32,1.6,1.16,1.99,2.59,1.16,.75-.44,1.45-.99,2.08-1.6,2.94-2.84,5.03-6.29,6.87-9.89,.74-1.45,1.31-2.99,1.99-4.48,.45-.98,.88-1.98,1.47-2.86,.8-1.19,2.03-1.41,3.39-.8,1.43,.65,1.87,1.39,1.56,2.93-.2,1.01-.41,2.05-.83,2.98-3.37,7.44-7.21,14.61-12.41,20.96-2.24,2.74-4.76,5.15-7.84,6.97-7.15,4.23-15.89,.16-17.52-7.81-.3-1.47-.49-2.96-.76-4.65-.25,.4-.42,.63-.56,.88-2.06,3.7-4.21,7.35-6.95,10.6-.92,1.1-1.94,2.12-2.97,3.12-3.58,3.46-7.79,4.1-12.43,2.71-2.88-.86-5.4-2.39-7.61-4.4-2.03-1.85-2.69-4.37-3.25-6.92-.06-.26-.11-.53-.38-.89-.2,.34-.42,.68-.6,1.03-2.29,4.36-4.82,8.56-8.01,12.33-1.89,2.23-4.01,4.21-6.53,5.76-7.46,4.6-15.56-.66-17.17-6.55-.82-3-1.12-6.02-1.01-9.11,.26-7.05,1.9-13.91,2.86-20.86,.42-3.04,.6-6.11,.81-9.17,.05-.73-.14-1.51-.35-2.23-.29-.96-.87-1.23-1.75-.76-.76,.41-1.48,.95-2.11,1.55-2.68,2.57-4.7,5.64-6.57,8.81-3.38,5.73-6.15,11.75-7.93,18.16-1.13,4.06-1.83,8.25-2.62,12.4-.72,3.81-1.19,7.64-1.25,11.53-.03,1.91-1.21,3.16-2.97,3.63-6.15,1.63-11.58-.19-13.01-7.24-.7-3.45-.65-6.93-.11-10.37,.73-4.69,1.68-9.34,2.55-14,1.34-7.22,2.72-14.42,4.02-21.65,1.29-7.18,2.64-14.36,3.72-21.58,.75-5.01,1.17-10.07,1.58-15.12,.14-1.65,.77-2.83,2.25-3.32,2.07-.68,4.2-1.29,6.35-1.61,1.75-.26,3.59-.24,5.35-.01,3.27,.42,5.15,2.68,5.23,5.98,.08,3.41-.48,6.76-1.07,10.11-.96,5.46-1.9,10.93-2.84,16.39-.25,1.44-.51,2.89-.77,4.33,.08,.02,.16,.03,.24,.05Zm79.01-1.81c0-.88,.06-1.76-.01-2.63-.15-1.68-.47-3.32-1.34-4.8-1.15-1.95-2.89-2.48-4.89-1.42-.7,.37-1.43,.82-1.91,1.42-1.29,1.61-2.67,3.21-3.62,5.03-4.66,8.93-7.05,18.52-7.87,28.51-.14,1.64,.06,3.35,.37,4.98,.32,1.66,1.28,2.06,2.7,1.14,1.32-.87,2.59-1.89,3.67-3.04,3.59-3.8,6.32-8.2,8.81-12.78,2.78-5.13,4.1-10.6,4.1-16.4Z"/><path class="cls-1" d="M76.1,86.03c-2.62,.88-5.03,1.68-7.44,2.5-3.21,1.09-6.4,2.23-9.62,3.28-.75,.25-1.17,.65-1.48,1.37-3.64,8.42-7.37,16.8-11.75,24.87-3.63,6.68-7.57,13.15-12.59,18.9-3.17,3.63-6.66,6.93-11.09,8.99-4.47,2.08-9.15,2.8-13.98,1.43-5.37-1.52-7.72-6.09-8.12-10.33-.13-1.39,.09-1.65,1.52-1.88,7.31-1.19,13.41-4.69,18.71-9.75,4.86-4.64,8.8-10.02,12.36-15.67,2.81-4.46,5.46-9.01,8.17-13.53,.16-.26,.27-.55,.47-.96-1.48-.14-2.86-.24-4.22-.42-1.95-.25-3.84-.74-5.58-1.68-3.1-1.67-4.04-4.3-2.65-7.55,1.36-3.17,3.79-5.49,6.34-7.69,.69-.6,1.21-.21,1.76,.29,3.04,2.83,6.73,4.03,10.8,4.22,.24,.01,.48-.02,.78-.03,1.12-2.05,2.25-4.11,3.39-6.17,5.5-9.96,11.15-19.83,17.51-29.28,4.18-6.2,8.59-12.22,13.9-17.52,2.58-2.57,5.36-4.89,8.66-6.54,3.49-1.74,6.85-1.62,10.13,.45,3.35,2.13,5.94,4.93,6.69,8.94,.51,2.72,.17,5.51-.48,8.2-1.96,8.1-3.99,16.18-5.98,24.28-.41,1.66-.75,3.33-1.14,5.05,1.42,.14,2.74,.18,4.02,.41,1.05,.19,2.11,.49,3.07,.93,2.24,1.03,3.27,3.05,2.94,5.48-.33,2.46-1.37,4.66-2.66,6.74-.61,.99-1.06,1.02-2.02,.4-2.45-1.59-5.2-1.83-8.11-1.88-.59,3.36-1.27,6.6-1.7,9.87-.78,5.85-1.57,11.71-2.05,17.59-.44,5.29-.42,10.62,.83,15.85,.61,2.55,1.57,4.94,3.48,6.85,.3,.31,.56,.68,.75,1.07,.51,1.04,.27,1.98-.73,2.59-.57,.35-1.2,.66-1.85,.82-4.18,1.05-8.39,1.24-12.54-.03-5.15-1.58-8.18-5.32-9.96-10.24-1.16-3.22-1.7-6.57-1.87-9.96-.29-5.92,.09-11.82,1.07-17.66,.66-3.93,1.46-7.84,2.2-11.76,.03-.19,.03-.38,.05-.86Zm13.07-50.34c-.32,.11-.41,.11-.46,.16-.18,.16-.34,.33-.51,.51-4.39,4.65-7.89,9.93-11.02,15.47-4.58,8.1-8.35,16.6-12.18,25.06-.47,1.03-.93,2.07-1.48,3.32,.62-.16,1-.23,1.36-.36,3.9-1.39,7.78-2.89,11.72-4.16,1.81-.58,2.57-1.56,3.04-3.4,2.43-9.62,5.04-19.2,7.58-28.79,.67-2.54,1.28-5.09,1.96-7.81Z"/><path class="cls-1" d="M264.76,170.99c-.12,3.49,.13,6.86,1.51,10.04,1.22,2.81,3.35,4.79,7.39,3.81,4.26-1.03,7.88-3.21,11.17-6,4.46-3.78,8.02-8.33,11.22-13.18,.55-.83,1.06-1.7,1.74-2.43,1.31-1.4,2.95-1.23,4.04,.36,.76,1.1,.92,2.27,.35,3.51-6.06,13.22-15.67,22.56-29.67,27.06-3.73,1.2-7.55,2.06-11.52,1.87-6.25-.3-10.71-3.3-13.37-8.94-1.38-2.92-2.06-6.03-2.23-9.25-.74-14.06,3.41-26.62,11.91-37.74,3.78-4.94,8.46-8.85,14.52-10.72,5.57-1.72,11.18-1.85,16.61,.58,4.87,2.18,7.02,5.76,6.56,11.06-.17,1.88-.66,3.78-1.3,5.56-1.55,4.27-4.19,7.87-7.33,11.12-5.86,6.05-12.81,10.37-20.82,12.99-.23,.07-.45,.17-.78,.31Zm.67-7.17l.28,.13c.32-.14,.66-.27,.97-.43,.56-.3,1.14-.59,1.66-.96,6.85-4.87,10.81-11.58,12.5-19.7,.25-1.22,.16-2.55,0-3.8-.16-1.26-1.04-1.74-2.16-1.22-.85,.39-1.73,.91-2.35,1.59-1.14,1.27-2.24,2.62-3.11,4.08-3.36,5.62-5.56,11.72-7.25,18.03-.2,.76-.36,1.52-.53,2.29Z"/><path class="cls-1" d="M254.99,57.66c.1-8.5,1.45-16.83,3.48-25.07,1.66-6.75,3.8-13.34,6.93-19.57,1.53-3.04,3.31-5.92,5.62-8.45,4.15-4.54,11.49-5.91,16.81-3.13,2.61,1.36,2.66,1.65,.97,4.06-2.7,3.86-4.45,8.18-6.02,12.59-3.12,8.77-5.35,17.79-6.92,26.95-1.04,6.09-1.83,12.22-2.54,18.36-.31,2.68-.12,5.41-.15,8.12,0,.4,.04,.8,.03,1.2-.04,1.3-.6,2.19-1.88,2.43-3.55,.65-7.09,.69-10.38-1.07-2.06-1.1-3.35-2.91-4.25-5.03-1.28-3.03-1.64-6.23-1.7-9.48-.01-.64,0-1.28,0-1.92Z"/><path class="cls-1" d="M264.91,101.25c-2.68-.07-5.1-.79-6.96-2.76-2.29-2.43-2.78-5.39-1.8-8.48,1.81-5.7,5.94-8.89,11.64-10.22,1.85-.43,3.73-.41,5.57,.11,4.72,1.33,7.24,5.65,5.89,10.44-1.63,5.77-5.73,9.02-11.39,10.48-.96,.25-1.97,.28-2.95,.41Z"/><path class="cls-1" d="M169.09,141.65c-1.23-.16-2.63-.25-3.99-.55-2.75-.6-4.14-2.31-4.07-5.11,.05-2.11,.35-4.21,.54-6.31,.01-.16,.06-.31,.08-.47,.48-3.45,1.62-4.69,5.04-5.19,2.89-.42,5.8-.6,8.71-.11,3.17,.53,4.53,1.93,4.83,5.12,.09,.94-.02,1.91-.13,2.86-.2,1.66-.42,3.33-.74,4.97-.5,2.61-2.1,4.01-4.75,4.28-1.79,.18-3.57,.33-5.53,.51Z"/></g></g></svg>